<?xml version="1.0" encoding="UTF-8" standalone="no"?><!DOCTYPE svg PUBLIC "-//W3C//DTD SVG 1.1//EN" "http://www.w3.org/Graphics/SVG/1.1/DTD/svg11.dtd"><svg width="100%" height="100%" viewBox="0 0 45 45" version="1.1" xmlns="http://www.w3.org/2000/svg" xmlns:xlink="http://www.w3.org/1999/xlink" xml:space="preserve" xmlns:serif="http://www.serif.com/" style="fill-rule:evenodd;clip-rule:evenodd;stroke-linejoin:round;stroke-miterlimit:1.41421;"><g><path d="M35.564,27.876c-0.921,-0.959 -2.032,-1.472 -3.21,-1.472c-1.168,0 -2.289,0.503 -3.248,1.462l-3.001,2.992c-0.247,-0.133 -0.494,-0.256 -0.732,-0.38c-0.342,-0.171 -0.665,-0.332 -0.94,-0.503c-2.811,-1.786 -5.366,-4.113 -7.816,-7.123c-1.188,-1.501 -1.985,-2.764 -2.565,-4.046c0.779,-0.713 1.501,-1.453 2.204,-2.166c0.266,-0.266 0.532,-0.541 0.797,-0.807c1.995,-1.994 1.995,-4.578 0,-6.572l-2.592,-2.593c-0.295,-0.295 -0.599,-0.598 -0.884,-0.902c-0.57,-0.589 -1.168,-1.197 -1.785,-1.767c-0.921,-0.912 -2.023,-1.396 -3.182,-1.396c-1.159,0 -2.279,0.484 -3.229,1.396c-0.01,0.01 -0.01,0.01 -0.019,0.019l-3.229,3.258c-1.216,1.215 -1.909,2.697 -2.061,4.416c-0.228,2.773 0.589,5.357 1.215,7.047c1.539,4.151 3.838,7.997 7.266,12.119c4.16,4.967 9.165,8.89 14.883,11.654c2.184,1.035 5.1,2.26 8.358,2.469c0.199,0.01 0.408,0.019 0.598,0.019c2.194,0 4.036,-0.788 5.48,-2.355c0.01,-0.019 0.029,-0.029 0.038,-0.048c0.494,-0.598 1.064,-1.14 1.662,-1.719c0.409,-0.389 0.826,-0.798 1.235,-1.225c0.94,-0.978 1.434,-2.118 1.434,-3.286c0,-1.178 -0.503,-2.308 -1.463,-3.258l-5.214,-5.233Zm3.4,10.001c-0.009,0 -0.009,0.009 0,0c-0.37,0.399 -0.75,0.76 -1.158,1.159c-0.618,0.588 -1.245,1.206 -1.833,1.899c-0.96,1.026 -2.09,1.51 -3.572,1.51c-0.142,0 -0.294,0 -0.436,-0.009c-2.821,-0.181 -5.442,-1.283 -7.408,-2.223c-5.376,-2.602 -10.096,-6.297 -14.019,-10.979c-3.239,-3.903 -5.404,-7.513 -6.838,-11.388c-0.883,-2.364 -1.206,-4.207 -1.064,-5.945c0.095,-1.111 0.523,-2.032 1.311,-2.821l3.238,-3.238c0.466,-0.437 0.96,-0.675 1.444,-0.675c0.598,0 1.083,0.361 1.387,0.665c0.009,0.01 0.019,0.019 0.028,0.029c0.58,0.541 1.13,1.101 1.71,1.7c0.294,0.304 0.598,0.607 0.902,0.921l2.593,2.593c1.007,1.006 1.007,1.937 0,2.944c-0.276,0.275 -0.541,0.551 -0.817,0.817c-0.798,0.817 -1.557,1.576 -2.384,2.317c-0.019,0.019 -0.038,0.029 -0.047,0.048c-0.817,0.816 -0.665,1.614 -0.494,2.156c0.009,0.028 0.019,0.057 0.028,0.085c0.675,1.634 1.624,3.172 3.068,5.005l0.01,0.01c2.621,3.229 5.385,5.746 8.433,7.674c0.39,0.247 0.789,0.446 1.169,0.636c0.342,0.171 0.664,0.333 0.94,0.504c0.038,0.019 0.076,0.047 0.114,0.066c0.323,0.161 0.627,0.237 0.94,0.237c0.788,0 1.282,-0.493 1.444,-0.655l3.248,-3.248c0.323,-0.323 0.836,-0.712 1.434,-0.712c0.589,0 1.073,0.37 1.368,0.693l5.252,5.252c0.978,0.969 0.978,1.966 0.009,2.973Z" style="fill:#006df0;fill-rule:nonzero;"/><path d="M24.319,10.704c2.488,0.418 4.749,1.596 6.553,3.4c1.805,1.805 2.973,4.065 3.401,6.554c0.104,0.627 0.645,1.063 1.263,1.063c0.076,0 0.142,-0.009 0.218,-0.019c0.703,-0.113 1.168,-0.778 1.054,-1.481c-0.513,-3.011 -1.937,-5.756 -4.112,-7.931c-2.175,-2.175 -4.92,-3.599 -7.931,-4.112c-0.702,-0.114 -1.358,0.351 -1.481,1.045c-0.124,0.693 0.332,1.367 1.035,1.481Z" style="fill:#006df0;fill-rule:nonzero;"/><path d="M44.948,19.85c-0.846,-4.957 -3.182,-9.469 -6.772,-13.059c-3.59,-3.59 -8.101,-5.926 -13.059,-6.771c-0.693,-0.124 -1.349,0.351 -1.472,1.044c-0.114,0.703 0.351,1.358 1.054,1.482c4.426,0.75 8.462,2.849 11.672,6.05c3.211,3.21 5.3,7.246 6.05,11.672c0.105,0.627 0.646,1.064 1.264,1.064c0.076,0 0.142,-0.009 0.218,-0.019c0.693,-0.104 1.168,-0.769 1.045,-1.463Z" style="fill:#006df0;fill-rule:nonzero;"/></g></svg>