<?xml version="1.0" encoding="UTF-8" standalone="no"?><!DOCTYPE svg PUBLIC "-//W3C//DTD SVG 1.1//EN" "http://www.w3.org/Graphics/SVG/1.1/DTD/svg11.dtd"><svg width="100%" height="100%" viewBox="0 0 64 64" version="1.1" xmlns="http://www.w3.org/2000/svg" xmlns:xlink="http://www.w3.org/1999/xlink" xml:space="preserve" xmlns:serif="http://www.serif.com/" style="fill-rule:evenodd;clip-rule:evenodd;stroke-linejoin:round;stroke-miterlimit:1.41421;"><path d="M59.52,28.92l-1.658,-6.629c0.454,-0.096 0.794,-0.498 0.794,-0.98l0,-1.069c0,-2.32 -1.889,-4.208 -4.209,-4.208l-7.549,0l0,-2.205c0,-1.142 -0.929,-2.071 -2.071,-2.071l-38.481,0c-1.141,0 -2.07,0.929 -2.07,2.071l0,18.171c0,0.553 0.448,1.002 1.002,1.002c0.553,0 1.002,-0.448 1.002,-1.002l0,-18.171c0,-0.037 0.03,-0.067 0.067,-0.067l38.48,0c0.037,0 0.066,0.03 0.066,0.067l0,18.171c0,0.554 0.449,1.002 1.003,1.002c0.553,0 1.002,-0.448 1.002,-1.002l0,-1.136l11.821,0c0.001,0 0.002,0.001 0.002,0.001c0.001,0 0.002,-0.001 0.003,-0.001c1.455,0.001 2.69,0.956 3.114,2.272l-3.116,0c-0.553,0 -1.002,0.448 -1.002,1.002l0,2.138c0,1.731 1.409,3.14 3.14,3.14l1.136,0l0,4.409l-2.621,0c-0.86,-2.486 -3.223,-4.276 -5.997,-4.276c-2.775,0 -5.137,1.79 -5.998,4.276l-0.483,0l0,-7.549c0,-0.554 -0.448,-1.003 -1.002,-1.003c-0.553,0 -1.002,0.449 -1.002,1.003l0,7.548l-20.791,0c-0.861,-2.485 -3.223,-4.275 -5.998,-4.275c-2.774,0 -5.137,1.79 -5.997,4.275l-5.76,0c-0.037,0 -0.067,-0.029 -0.067,-0.066l0,-2.205l4.342,0c0.554,0 1.002,-0.449 1.002,-1.002c0,-0.554 -0.448,-1.002 -1.002,-1.002l-9.62,0c-0.553,0 -1.002,0.448 -1.002,1.002c0,0.553 0.449,1.002 1.002,1.002l3.274,0l0,2.205c0,1.142 0.929,2.071 2.071,2.071l5.413,0c-0.001,0.022 -0.002,0.044 -0.002,0.066c0,3.5 2.847,6.347 6.346,6.347c3.5,0 6.347,-2.847 6.347,-6.347c0,-0.022 -0.002,-0.044 -0.002,-0.066l22.584,0c0,0.022 -0.002,0.044 -0.002,0.066c0,3.5 2.847,6.347 6.347,6.347c3.499,0 6.346,-2.847 6.346,-6.347c0,-0.022 -0.001,-0.044 -0.002,-0.066l3.276,0c0.553,0 1.002,-0.449 1.002,-1.002l0,-10.689c0,-2.639 -1.947,-4.832 -4.48,-5.218Zm-12.622,-10.882l7.549,0c1.215,0 2.204,0.989 2.204,2.204l0,0.067l-9.753,0l0,-2.271Zm0,10.822l0,-6.547l8.904,0l1.637,6.547l-10.541,0Zm-28.794,21.378c-2.394,0 -4.342,-1.948 -4.342,-4.342c0,-2.395 1.948,-4.343 4.342,-4.343c2.395,0 4.343,1.948 4.343,4.343c0,2.394 -1.948,4.342 -4.343,4.342Zm35.274,0c-2.394,0 -4.342,-1.948 -4.342,-4.342c0,-2.395 1.948,-4.343 4.342,-4.343c2.394,0 4.342,1.948 4.342,4.343c0,2.394 -1.948,4.342 -4.342,4.342Zm8.618,-12.827l-1.136,0c-0.626,0 -1.136,-0.509 -1.136,-1.135l0,-1.136l2.272,0l0,2.271l0,0Z" style="fill:#006df0;fill-rule:nonzero;"/><path d="M18.104,43.825c-1.142,0 -2.071,0.929 -2.071,2.071c0,1.142 0.929,2.071 2.071,2.071c1.142,0 2.071,-0.929 2.071,-2.071c0,-1.142 -0.929,-2.071 -2.071,-2.071Z" style="fill:#006df0;fill-rule:nonzero;"/><path d="M53.378,43.825c-1.142,0 -2.071,0.929 -2.071,2.071c0,1.142 0.929,2.071 2.071,2.071c1.142,0 2.071,-0.929 2.071,-2.071c0,-1.142 -0.929,-2.071 -2.071,-2.071Z" style="fill:#006df0;fill-rule:nonzero;"/><path d="M41.62,39.549l-14.964,0c-0.554,0 -1.003,0.449 -1.003,1.002c0,0.554 0.449,1.002 1.003,1.002l14.964,0c0.553,0 1.002,-0.448 1.002,-1.002c0,-0.553 -0.448,-1.002 -1.002,-1.002Z" style="fill:#006df0;fill-rule:nonzero;"/><path d="M15.967,35.274l-12.827,0c-0.554,0 -1.002,0.448 -1.002,1.002c0,0.553 0.448,1.002 1.002,1.002l12.827,0c0.553,0 1.002,-0.449 1.002,-1.002c0,-0.554 -0.449,-1.002 -1.002,-1.002Z" style="fill:#006df0;fill-rule:nonzero;"/><path d="M34.846,21.671c-0.391,-0.391 -1.025,-0.391 -1.417,0l-8.911,8.912l-4.636,-4.636c-0.391,-0.391 -1.026,-0.391 -1.417,0c-0.392,0.391 -0.392,1.026 0,1.417l5.344,5.345c0.196,0.195 0.452,0.293 0.709,0.293c0.256,0 0.513,-0.098 0.708,-0.293l9.62,-9.62c0.392,-0.392 0.392,-1.026 0,-1.418Z" style="fill:#006df0;fill-rule:nonzero;"/></svg>