<?xml version="1.0" encoding="UTF-8" standalone="no"?><!DOCTYPE svg PUBLIC "-//W3C//DTD SVG 1.1//EN" "http://www.w3.org/Graphics/SVG/1.1/DTD/svg11.dtd"><svg width="100%" height="100%" viewBox="0 0 54 54" version="1.1" xmlns="http://www.w3.org/2000/svg" xmlns:xlink="http://www.w3.org/1999/xlink" xml:space="preserve" xmlns:serif="http://www.serif.com/" style="fill-rule:evenodd;clip-rule:evenodd;stroke-linejoin:round;stroke-miterlimit:1.41421;"><clipPath id="_clip1"><rect id="bucket" x="0" y="0" width="54" height="54"/></clipPath><g clip-path="url(#_clip1)"><path d="M41.75,25.401c-0.199,-1.412 -0.96,-2.642 -2.053,-3.457c0.24,-0.609 0.368,-1.25 0.368,-1.912c0,-2.882 -2.344,-5.226 -5.226,-5.226c-0.104,0 -0.204,0.012 -0.307,0.018c-0.724,-2.062 -2.684,-3.501 -4.919,-3.501c-0.93,0 -1.817,0.251 -2.608,0.71c-0.777,-0.451 -1.673,-0.71 -2.618,-0.71c-2.235,0 -4.195,1.439 -4.919,3.501c-0.103,-0.006 -0.203,-0.018 -0.307,-0.018c-2.882,0 -5.226,2.344 -5.226,5.226c0,0.662 0.128,1.303 0.368,1.912c-1.093,0.816 -1.854,2.045 -2.053,3.457c-0.764,0.253 -1.368,0.843 -1.638,1.599l-3.644,0l0,0.871c0,5.464 3.169,10.192 7.76,12.474l0.833,11.236c0.099,1.356 1.244,2.419 2.605,2.419l17.667,0c1.361,0 2.506,-1.063 2.606,-2.419l0.833,-11.236c4.591,-2.282 7.76,-7.01 7.76,-12.474l0,-0.871l-3.644,0c-0.27,-0.757 -0.874,-1.346 -1.638,-1.599Zm-26.073,-5.369c0,-1.921 1.563,-3.484 3.484,-3.484c1.106,0 2.123,0.508 2.788,1.394l1.393,-1.046c-0.573,-0.762 -1.323,-1.331 -2.169,-1.683c0.531,-1.275 1.791,-2.148 3.214,-2.148c1.651,0 3.086,1.171 3.414,2.786l1.707,-0.347c-0.17,-0.842 -0.553,-1.597 -1.069,-2.232c0.374,-0.133 0.767,-0.207 1.174,-0.207c1.423,0 2.683,0.873 3.214,2.148c-0.846,0.352 -1.596,0.921 -2.169,1.683l1.393,1.046c0.666,-0.886 1.682,-1.394 2.788,-1.394c1.921,0 3.484,1.563 3.484,3.484c0,0.382 -0.078,0.749 -0.198,1.105c-0.488,-0.152 -1.007,-0.234 -1.544,-0.234l0,1.742c1.618,0 2.971,1.115 3.36,2.613l-17.296,0l0,-0.871l-1.742,0l0,0.871l-6.844,0c0.389,-1.498 1.742,-2.613 3.36,-2.613l0,-1.742c-0.537,0 -1.056,0.082 -1.544,0.234c-0.12,-0.356 -0.198,-0.723 -0.198,-1.105Zm-2.612,6.968l27.87,0c0.48,0 0.871,0.391 0.871,0.871c0,0.48 -0.391,0.871 -0.871,0.871l-27.87,0c-0.48,0 -0.871,-0.391 -0.871,-0.871c0,-0.48 0.391,-0.871 0.871,-0.871Zm9.58,11.323l0,1.742l-1.742,0c-1.594,0 -3.117,-0.31 -4.513,-0.868l-0.645,-8.713l22.511,0l-0.645,8.713c-1.397,0.558 -2.92,0.868 -4.514,0.868l-1.742,0l0,-1.742l-8.71,0Zm6.968,1.742l0,1.741l-5.226,0l0,-1.741l5.226,0Zm-20.873,-11.323l1.872,0c0.361,1.011 1.319,1.742 2.453,1.742l0.933,0l0.578,7.796c-3.279,-2.001 -5.548,-5.497 -5.836,-9.538Zm28.161,20.032l-3.804,0l0,1.742l3.675,0l-0.069,0.936c-0.033,0.451 -0.415,0.806 -0.869,0.806l-17.668,0c-0.454,0 -0.836,-0.355 -0.87,-0.806l-0.068,-0.936l14.127,0l0,-1.742l-14.256,0l-0.569,-7.681c1.377,0.457 2.845,0.713 4.373,0.713l1.742,0l0,1.742l8.71,0l0,-1.742l1.742,0c1.528,0 2.996,-0.256 4.373,-0.713l-0.569,7.681Zm2.523,-10.494l0.578,-7.796l0.933,0c1.134,0 2.092,-0.731 2.453,-1.742l1.872,0c-0.288,4.041 -2.557,7.537 -5.836,9.538Z" style="fill:#006df0;fill-rule:nonzero;"/><rect x="33.968" y="19.161" width="1.742" height="1.742" style="fill:#006df0;fill-rule:nonzero;"/><rect x="18.29" y="18.29" width="1.742" height="1.742" style="fill:#006df0;fill-rule:nonzero;"/><rect x="25.258" y="16.548" width="1.742" height="1.742" style="fill:#006df0;fill-rule:nonzero;"/><rect x="29.613" y="21.774" width="1.742" height="1.742" style="fill:#006df0;fill-rule:nonzero;"/><path d="M34.839,6.968c1.921,0 3.484,-1.563 3.484,-3.484c0,-1.922 -1.563,-3.484 -3.484,-3.484c-1.922,0 -3.484,1.562 -3.484,3.484c0,1.921 1.562,3.484 3.484,3.484Zm0,-5.226c0.96,0 1.742,0.781 1.742,1.742c0,0.961 -0.782,1.742 -1.742,1.742c-0.961,0 -1.742,-0.781 -1.742,-1.742c0,-0.961 0.781,-1.742 1.742,-1.742Z" style="fill:#006df0;fill-rule:nonzero;"/><path d="M6.968,14.806c1.921,0 3.484,-1.562 3.484,-3.483c0,-1.922 -1.563,-3.484 -3.484,-3.484c-1.922,0 -3.484,1.562 -3.484,3.484c0,1.921 1.562,3.483 3.484,3.483Zm0,-5.225c0.96,0 1.742,0.781 1.742,1.742c0,0.96 -0.782,1.742 -1.742,1.742c-0.961,0 -1.742,-0.782 -1.742,-1.742c0,-0.961 0.781,-1.742 1.742,-1.742Z" style="fill:#006df0;fill-rule:nonzero;"/><path d="M50.516,18.29c-1.921,0 -3.484,1.563 -3.484,3.484c0,1.922 1.563,3.484 3.484,3.484c1.922,0 3.484,-1.562 3.484,-3.484c0,-1.921 -1.562,-3.484 -3.484,-3.484Zm0,5.226c-0.961,0 -1.742,-0.781 -1.742,-1.742c0,-0.961 0.781,-1.742 1.742,-1.742c0.961,0 1.742,0.781 1.742,1.742c0,0.961 -0.781,1.742 -1.742,1.742Z" style="fill:#006df0;fill-rule:nonzero;"/><path d="M46.161,14.806c1.441,0 2.613,-1.172 2.613,-2.612c0,-1.441 -1.172,-2.613 -2.613,-2.613c-1.44,0 -2.613,1.172 -2.613,2.613c0,1.44 1.173,2.612 2.613,2.612Zm0,-3.483c0.48,0 0.871,0.391 0.871,0.871c0,0.479 -0.391,0.871 -0.871,0.871c-0.479,0 -0.871,-0.392 -0.871,-0.871c0,-0.48 0.392,-0.871 0.871,-0.871Z" style="fill:#006df0;fill-rule:nonzero;"/><path d="M2.613,20.032c-1.441,0 -2.613,1.173 -2.613,2.613c0,1.441 1.172,2.613 2.613,2.613c1.44,0 2.613,-1.172 2.613,-2.613c0,-1.44 -1.173,-2.613 -2.613,-2.613Zm0,3.484c-0.48,0 -0.871,-0.391 -0.871,-0.871c0,-0.48 0.391,-0.871 0.871,-0.871c0.48,0 0.871,0.391 0.871,0.871c0,0.48 -0.391,0.871 -0.871,0.871Z" style="fill:#006df0;fill-rule:nonzero;"/><path d="M18.29,7.839c1.441,0 2.613,-1.173 2.613,-2.613c0,-1.441 -1.172,-2.613 -2.613,-2.613c-1.44,0 -2.613,1.172 -2.613,2.613c0,1.44 1.173,2.613 2.613,2.613Zm0,-3.484c0.48,0 0.871,0.391 0.871,0.871c0,0.48 -0.391,0.871 -0.871,0.871c-0.479,0 -0.871,-0.391 -0.871,-0.871c0,-0.48 0.392,-0.871 0.871,-0.871Z" style="fill:#006df0;fill-rule:nonzero;"/><rect x="37.452" y="9.581" width="1.742" height="1.742" style="fill:#006df0;fill-rule:nonzero;"/><rect x="9.581" y="3.484" width="1.742" height="1.742" style="fill:#006df0;fill-rule:nonzero;"/><rect x="7.839" y="17.419" width="1.742" height="1.742" style="fill:#006df0;fill-rule:nonzero;"/><rect x="42.677" y="20.903" width="1.742" height="1.742" style="fill:#006df0;fill-rule:nonzero;"/></g></svg>