<?xml version="1.0" encoding="UTF-8" standalone="no"?><!DOCTYPE svg PUBLIC "-//W3C//DTD SVG 1.1//EN" "http://www.w3.org/Graphics/SVG/1.1/DTD/svg11.dtd"><svg width="100%" height="100%" viewBox="0 0 47 47" version="1.1" xmlns="http://www.w3.org/2000/svg" xmlns:xlink="http://www.w3.org/1999/xlink" xml:space="preserve" xmlns:serif="http://www.serif.com/" style="fill-rule:evenodd;clip-rule:evenodd;stroke-linejoin:round;stroke-miterlimit:1.41421;"><g><path d="M23.5,0c-12.958,0 -23.5,10.542 -23.5,23.5c0,12.958 10.542,23.5 23.5,23.5c12.958,0 23.5,-10.542 23.5,-23.5c0,-12.958 -10.542,-23.5 -23.5,-23.5Zm0,44.459c-5.757,0 -10.979,-2.333 -14.771,-6.103c-1.514,-1.506 -2.799,-3.241 -3.8,-5.148c-1.524,-2.904 -2.388,-6.207 -2.388,-9.708c0,-11.557 9.402,-20.959 20.959,-20.959c5.482,0 10.478,2.116 14.217,5.573c1.938,1.793 3.539,3.945 4.693,6.351c1.313,2.737 2.049,5.802 2.049,9.035c0,11.557 -9.402,20.959 -20.959,20.959Z" style="fill:#006df0;fill-rule:nonzero;"/><path d="M15.467,18.165c1.366,0 2.477,1.048 2.477,2.477l2.54,0c0,-2.858 -2.25,-5.017 -5.017,-5.017c-2.766,0 -5.017,2.159 -5.017,5.017l2.541,0c0,-1.429 1.111,-2.477 2.476,-2.477Z" style="fill:#006df0;fill-rule:nonzero;"/><path d="M31.532,18.165c1.366,0 2.477,1.048 2.477,2.477l2.541,0c0,-2.858 -2.251,-5.017 -5.018,-5.017c-2.766,0 -5.017,2.159 -5.017,5.017l2.541,0c0,-1.429 1.111,-2.477 2.476,-2.477Z" style="fill:#006df0;fill-rule:nonzero;"/><path d="M23.455,36.52c4.915,0 9.626,-2.514 12.322,-6.687l-2.133,-1.379c-2.477,3.832 -7.008,5.971 -11.543,5.448c-3.535,-0.408 -6.804,-2.444 -8.745,-5.448l-2.133,1.379c2.348,3.634 6.306,6.099 10.587,6.592c0.549,0.064 1.098,0.095 1.645,0.095Z" style="fill:#006df0;fill-rule:nonzero;"/></g></svg>