<?xml version="1.0" encoding="UTF-8" standalone="no"?><!DOCTYPE svg PUBLIC "-//W3C//DTD SVG 1.1//EN" "http://www.w3.org/Graphics/SVG/1.1/DTD/svg11.dtd"><svg width="100%" height="100%" viewBox="0 0 50 50" version="1.1" xmlns="http://www.w3.org/2000/svg" xmlns:xlink="http://www.w3.org/1999/xlink" xml:space="preserve" xmlns:serif="http://www.serif.com/" style="fill-rule:evenodd;clip-rule:evenodd;stroke-linejoin:round;stroke-miterlimit:1.41421;"><g><path d="M25,47.519c-12.403,0 -22.519,-10.077 -22.519,-22.519c0,-12.442 10.077,-22.481 22.519,-22.481c12.442,0 22.481,10.078 22.481,22.481c0,12.403 -10.078,22.519 -22.481,22.519Zm0,-41.86c-10.659,0 -19.341,8.682 -19.341,19.341c0,10.659 8.682,19.341 19.341,19.341c10.659,0 19.341,-8.682 19.341,-19.341c0,-10.659 -8.682,-19.341 -19.341,-19.341Z" style="fill:#006df0;fill-rule:nonzero;"/><path d="M22.868,36.24c-0.31,0.31 -0.697,0.465 -1.124,0.465c-0.387,0 -0.814,-0.155 -1.124,-0.465c-0.62,-0.62 -0.62,-1.628 0,-2.248l9.109,-9.108l-9.109,-9.109c-0.62,-0.62 -0.62,-1.628 0,-2.248c0.62,-0.62 1.628,-0.62 2.248,0l10.233,10.233c0.31,0.31 0.465,0.697 0.465,1.124c0,0.426 -0.155,0.814 -0.465,1.124l-10.233,10.232Z" style="fill:#006df0;fill-rule:nonzero;"/></g></svg>