<?xml version="1.0" encoding="UTF-8" standalone="no"?><!DOCTYPE svg PUBLIC "-//W3C//DTD SVG 1.1//EN" "http://www.w3.org/Graphics/SVG/1.1/DTD/svg11.dtd"><svg width="100%" height="100%" viewBox="0 0 24 24" version="1.1" xmlns="http://www.w3.org/2000/svg" xmlns:xlink="http://www.w3.org/1999/xlink" xml:space="preserve" xmlns:serif="http://www.serif.com/" style="fill-rule:evenodd;clip-rule:evenodd;stroke-linejoin:round;stroke-miterlimit:1.41421;"><clipPath id="_clip1"><rect id="envelope" x="0" y="0" width="24" height="24"/></clipPath><g clip-path="url(#_clip1)"><g><path d="M21.07,2.868l-18.135,0c-1.619,0 -2.935,1.316 -2.935,2.935l0,12.394c0,1.619 1.316,2.935 2.935,2.935l18.13,0c1.619,0 2.935,-1.316 2.935,-2.935l0,-12.389c0.005,-1.619 -1.311,-2.94 -2.93,-2.94Zm1.594,15.329c0,0.879 -0.715,1.594 -1.594,1.594l-18.135,0c-0.879,0 -1.594,-0.715 -1.594,-1.594l0,-12.389c0,-0.879 0.715,-1.594 1.594,-1.594l18.13,0c0.879,0 1.594,0.715 1.594,1.594l0,12.389l0.005,0Z" style="fill:#fff;fill-rule:nonzero;"/><path d="M15.136,11.846l5.87,-5.264c0.273,-0.248 0.298,-0.67 0.049,-0.948c-0.248,-0.273 -0.67,-0.298 -0.948,-0.05l-8.095,7.265l-1.579,-1.41c-0.005,-0.005 -0.01,-0.01 -0.01,-0.015c-0.034,-0.035 -0.069,-0.065 -0.109,-0.094l-6.426,-5.751c-0.278,-0.248 -0.7,-0.223 -0.948,0.055c-0.249,0.278 -0.224,0.7 0.054,0.948l5.94,5.309l-5.915,5.537c-0.268,0.253 -0.283,0.675 -0.03,0.948c0.135,0.139 0.313,0.214 0.492,0.214c0.164,0 0.328,-0.06 0.457,-0.179l6.004,-5.616l1.628,1.455c0.13,0.114 0.288,0.168 0.447,0.168c0.159,0 0.323,-0.059 0.447,-0.173l1.674,-1.5l5.969,5.671c0.129,0.124 0.298,0.184 0.462,0.184c0.178,0 0.352,-0.07 0.486,-0.209c0.254,-0.268 0.244,-0.695 -0.025,-0.948l-5.894,-5.597Z" style="fill:#fff;fill-rule:nonzero;"/></g></g></svg>