<?xml version="1.0" encoding="UTF-8" standalone="no"?><!DOCTYPE svg PUBLIC "-//W3C//DTD SVG 1.1//EN" "http://www.w3.org/Graphics/SVG/1.1/DTD/svg11.dtd"><svg width="100%" height="100%" viewBox="0 0 24 24" version="1.1" xmlns="http://www.w3.org/2000/svg" xmlns:xlink="http://www.w3.org/1999/xlink" xml:space="preserve" xmlns:serif="http://www.serif.com/" style="fill-rule:evenodd;clip-rule:evenodd;stroke-linejoin:round;stroke-miterlimit:1.41421;"><g><path d="M18.968,14.867c-0.492,-0.511 -1.084,-0.785 -1.713,-0.785c-0.623,0 -1.22,0.268 -1.732,0.78l-1.601,1.596c-0.131,-0.071 -0.263,-0.137 -0.39,-0.203c-0.182,-0.091 -0.354,-0.177 -0.501,-0.268c-1.499,-0.953 -2.862,-2.194 -4.169,-3.799c-0.633,-0.801 -1.059,-1.474 -1.367,-2.158c0.415,-0.38 0.8,-0.775 1.175,-1.155c0.142,-0.142 0.283,-0.289 0.425,-0.431c1.064,-1.063 1.064,-2.441 0,-3.505l-1.383,-1.383c-0.157,-0.157 -0.319,-0.319 -0.471,-0.481c-0.304,-0.314 -0.623,-0.638 -0.952,-0.942c-0.491,-0.486 -1.079,-0.745 -1.697,-0.745c-0.618,0 -1.216,0.259 -1.722,0.745c-0.005,0.005 -0.005,0.005 -0.01,0.01l-1.723,1.737c-0.648,0.649 -1.018,1.439 -1.099,2.356c-0.121,1.479 0.314,2.857 0.649,3.758c0.82,2.214 2.046,4.265 3.875,6.464c2.218,2.649 4.888,4.741 7.937,6.215c1.165,0.552 2.72,1.205 4.458,1.317c0.106,0.005 0.217,0.01 0.319,0.01c1.17,0 2.153,-0.42 2.922,-1.256c0.006,-0.01 0.016,-0.015 0.021,-0.026c0.263,-0.319 0.567,-0.607 0.886,-0.916c0.218,-0.208 0.441,-0.426 0.659,-0.654c0.501,-0.522 0.765,-1.129 0.765,-1.752c0,-0.629 -0.269,-1.231 -0.781,-1.738l-2.78,-2.791Zm1.813,5.334c-0.005,0 -0.005,0.005 0,0c-0.198,0.213 -0.4,0.405 -0.618,0.618c-0.329,0.314 -0.664,0.643 -0.978,1.013c-0.511,0.547 -1.114,0.805 -1.904,0.805c-0.076,0 -0.157,0 -0.233,-0.005c-1.505,-0.096 -2.903,-0.683 -3.951,-1.185c-2.867,-1.388 -5.385,-3.358 -7.477,-5.856c-1.727,-2.081 -2.882,-4.006 -3.647,-6.073c-0.471,-1.261 -0.643,-2.244 -0.567,-3.171c0.051,-0.592 0.279,-1.084 0.699,-1.504l1.727,-1.727c0.248,-0.234 0.512,-0.36 0.77,-0.36c0.319,0 0.578,0.192 0.74,0.354c0.005,0.006 0.01,0.011 0.015,0.016c0.309,0.288 0.603,0.587 0.912,0.906c0.157,0.162 0.319,0.325 0.481,0.492l1.383,1.383c0.537,0.536 0.537,1.033 0,1.57c-0.147,0.147 -0.289,0.294 -0.436,0.435c-0.425,0.436 -0.831,0.841 -1.271,1.236c-0.01,0.01 -0.021,0.016 -0.026,0.026c-0.435,0.435 -0.354,0.861 -0.263,1.15c0.005,0.015 0.01,0.03 0.015,0.045c0.36,0.871 0.866,1.692 1.636,2.67l0.005,0.005c1.398,1.722 2.872,3.064 4.498,4.092c0.208,0.132 0.421,0.239 0.623,0.34c0.183,0.091 0.355,0.177 0.502,0.268c0.02,0.01 0.04,0.026 0.061,0.036c0.172,0.086 0.334,0.126 0.501,0.126c0.421,0 0.684,-0.263 0.77,-0.349l1.732,-1.732c0.173,-0.173 0.446,-0.38 0.765,-0.38c0.314,0 0.573,0.197 0.73,0.369l2.801,2.802c0.522,0.516 0.522,1.048 0.005,1.585Z" style="fill:#fff;fill-rule:nonzero;"/><path d="M12.97,5.709c1.327,0.223 2.533,0.851 3.495,1.813c0.963,0.963 1.586,2.168 1.814,3.495c0.055,0.335 0.344,0.568 0.673,0.568c0.041,0 0.076,-0.005 0.117,-0.01c0.375,-0.061 0.623,-0.416 0.562,-0.791c-0.273,-1.605 -1.033,-3.069 -2.193,-4.229c-1.16,-1.16 -2.624,-1.92 -4.23,-2.193c-0.375,-0.061 -0.724,0.187 -0.79,0.557c-0.066,0.37 0.177,0.729 0.552,0.79Z" style="fill:#fff;fill-rule:nonzero;"/><path d="M23.972,10.587c-0.451,-2.644 -1.697,-5.05 -3.611,-6.965c-1.915,-1.915 -4.321,-3.161 -6.965,-3.612c-0.37,-0.065 -0.72,0.188 -0.785,0.558c-0.061,0.374 0.187,0.724 0.562,0.79c2.36,0.4 4.513,1.519 6.225,3.226c1.712,1.713 2.827,3.865 3.227,6.226c0.055,0.334 0.344,0.567 0.673,0.567c0.041,0 0.076,-0.005 0.117,-0.01c0.37,-0.056 0.623,-0.41 0.557,-0.78Z" style="fill:#fff;fill-rule:nonzero;"/></g></svg>